<svg width="72" height="72" viewBox="0 0 72 72" fill="none" xmlns="http://www.w3.org/2000/svg">
<path d="M27 66C28.6569 66 30 64.6569 30 63C30 61.3431 28.6569 60 27 60C25.3431 60 24 61.3431 24 63C24 64.6569 25.3431 66 27 66Z" stroke="#242424" stroke-width="2" stroke-linecap="round" stroke-linejoin="round"/>
<path d="M60 66C61.6569 66 63 64.6569 63 63C63 61.3431 61.6569 60 60 60C58.3431 60 57 61.3431 57 63C57 64.6569 58.3431 66 60 66Z" stroke="#242424" stroke-width="2" stroke-linecap="round" stroke-linejoin="round"/>
<path d="M3 3H15L23.04 43.17C23.3143 44.5512 24.0657 45.7919 25.1626 46.6749C26.2595 47.5579 27.6321 48.027 29.04 48H58.2C59.6079 48.027 60.9805 47.5579 62.0774 46.6749C63.1743 45.7919 63.9257 44.5512 64.2 43.17L69 18H18" stroke="#242424" stroke-width="2" stroke-linecap="round" stroke-linejoin="round"/>
</svg>
