<svg width="16" height="16" viewBox="0 0 16 16" fill="none" xmlns="http://www.w3.org/2000/svg">
<path d="M10.6667 2H0.666748V10.6667H10.6667V2Z" stroke="white" stroke-linecap="round" stroke-linejoin="round"/>
<path d="M10.6667 5.33331H13.3334L15.3334 7.33331V10.6666H10.6667V5.33331Z" stroke="white" stroke-linecap="round" stroke-linejoin="round"/>
<path d="M3.66667 14C4.58714 14 5.33333 13.2538 5.33333 12.3334C5.33333 11.4129 4.58714 10.6667 3.66667 10.6667C2.74619 10.6667 2 11.4129 2 12.3334C2 13.2538 2.74619 14 3.66667 14Z" stroke="white" stroke-linecap="round" stroke-linejoin="round"/>
<path d="M12.3334 14C13.2539 14 14.0001 13.2538 14.0001 12.3334C14.0001 11.4129 13.2539 10.6667 12.3334 10.6667C11.4129 10.6667 10.6667 11.4129 10.6667 12.3334C10.6667 13.2538 11.4129 14 12.3334 14Z" stroke="white" stroke-linecap="round" stroke-linejoin="round"/>
</svg>
